<svg height="512pt" viewBox="0 0 512 512.001" width="512pt" xmlns="http://www.w3.org/2000/svg"><path d="m478.988281 0h-445.972656c-18.203125 0-33.015625 14.8125-33.015625 33.015625v89.628906c0 4.144531 3.359375 7.5 7.5 7.5 4.144531 0 7.503906-3.355469 7.503906-7.5v-89.628906c0-9.933594 8.078125-18.011719 18.011719-18.011719h445.972656c9.929688 0 18.007813 8.078125 18.007813 18.011719v445.972656c0 9.929688-8.078125 18.011719-18.007813 18.011719h-445.972656c-9.933594 0-18.011719-8.082031-18.011719-18.011719v-322.335937c0-4.144532-3.359375-7.503906-7.5-7.503906-4.144531 0-7.503906 3.359374-7.503906 7.503906v322.335937c0 18.203125 14.8125 33.011719 33.015625 33.011719h445.972656c18.203125 0 33.011719-14.808594 33.011719-33.011719v-445.972656c0-18.203125-14.808594-33.015625-33.011719-33.015625zm0 0"/><path d="m238.65625 48.746094c0-7.070313-5.753906-12.824219-12.828125-12.824219h-175.050781c-7.070313 0-12.824219 5.753906-12.824219 12.824219v121.507812c0 7.070313 5.753906 12.824219 12.824219 12.824219h175.050781c7.074219 0 12.828125-5.753906 12.828125-12.824219zm-74.167969 119.328125h-52.367187v-94.660157h52.367187zm59.164063 0h-44.164063v-97.160157c0-6.894531-5.605469-12.503906-12.5-12.503906h-57.367187c-6.894532 0-12.503906 5.609375-12.503906 12.503906v97.160157h-44.164063v-117.148438h170.699219zm0 0"/><path d="m148.695312 127.546875c4.140626 0 7.5-3.359375 7.5-7.5v-9.964844c0-4.144531-3.359374-7.5-7.5-7.5-4.144531 0-7.503906 3.355469-7.503906 7.5v9.964844c0 4.140625 3.359375 7.5 7.503906 7.5zm0 0"/><path d="m474.054688 48.746094c0-7.070313-5.753907-12.824219-12.824219-12.824219h-175.054688c-7.070312 0-12.824219 5.753906-12.824219 12.824219v121.507812c0 7.070313 5.753907 12.824219 12.824219 12.824219h175.054688c7.070312 0 12.824219-5.753906 12.824219-12.824219zm-93.921876 42.246094c-5.222656 5.375-8.449218 12.699218-8.449218 20.769531 0 8.015625 3.183594 15.296875 8.347656 20.660156-4.796875 4.257813-7.832031 10.464844-7.832031 17.367187v18.285157h-44.433594v-94.660157h52.367187zm35.648438 77.082031h-28.578125v-18.285157c0-4.53125 3.6875-8.21875 8.21875-8.21875h12.140625c4.53125 0 8.21875 3.6875 8.21875 8.21875zm-14.289062-41.507813c-8.164063 0-14.808594-6.640625-14.808594-14.808594 0-8.164062 6.644531-14.804687 14.808594-14.804687 8.164062 0 14.808593 6.640625 14.808593 14.804687 0 8.167969-6.644531 14.808594-14.808593 14.808594zm57.558593 41.507813h-28.265625v-18.285157c0-6.90625-3.035156-13.109374-7.835937-17.367187 5.167969-5.363281 8.351562-12.644531 8.351562-20.664063 0-16.4375-13.371093-29.808593-29.808593-29.808593-2.179688 0-4.304688.242187-6.355469.6875v-11.722657c0-6.894531-5.609375-12.503906-12.503907-12.503906h-57.367187c-6.894531 0-12.5 5.609375-12.5 12.503906v97.160157h-24.410156v-117.148438h170.695312zm0 0"/><path d="m37.953125 300.023438v104.664062c0 6.894531 5.605469 12.5 12.5 12.5h175.699219c6.894531 0 12.503906-5.605469 12.503906-12.5v-121.832031c0-7.070313-5.753906-12.824219-12.828125-12.824219h-175.050781c-7.070313 0-12.824219 5.753906-12.824219 12.824219zm83.949219 101.910156h-28.578125v-18.28125c0-4.53125 3.6875-8.21875 8.21875-8.21875h12.140625c4.53125 0 8.21875 3.6875 8.21875 8.21875zm-14.289063-41.503906c-8.167969 0-14.808593-6.644532-14.808593-14.808594 0-8.164063 6.644531-14.808594 14.808593-14.808594 8.164063 0 14.808594 6.644531 14.808594 14.808594 0 8.164062-6.644531 14.808594-14.808594 14.808594zm116.039063 41.757812h-29.175782v-34.847656h29.175782zm-170.699219-117.152344h170.699219v67.300782h-31.679688c-6.894531 0-12.5 5.609374-12.5 12.503906v37.347656h-42.566406v-18.535156c0-6.90625-3.035156-13.113282-7.835938-17.371094 5.167969-5.363281 8.351563-12.644531 8.351563-20.660156 0-16.4375-13.371094-29.8125-29.808594-29.8125-1.40625 0-2.789062.105468-4.148437.296875v-11.082031c0-6.894532-5.605469-12.503907-12.5-12.503907h-38.011719zm0 22.488282h35.511719v15.273437c-6.515625 5.472656-10.664063 13.671875-10.664063 22.824219 0 8.015625 3.1875 15.296875 8.351563 20.660156-4.800782 4.257812-7.832032 10.464844-7.832032 17.371094v18.535156h-25.367187zm0 0"/><path d="m273.351562 404.363281c0 7.070313 5.753907 12.824219 12.824219 12.824219h175.375c6.894531 0 12.503907-5.605469 12.503907-12.5v-121.832031c0-7.070313-5.753907-12.824219-12.824219-12.824219h-101.460938c-4.144531 0-7.503906 3.359375-7.503906 7.5 0 4.144531 3.359375 7.503906 7.503906 7.503906h99.28125v67.300782h-17.683593c-6.890626 0-12.5 5.605468-12.5 12.5v37.351562h-7.507813v-18.539062c0-6.902344-3.03125-13.109376-7.832031-17.367188 5.164062-5.363281 8.351562-12.644531 8.351562-20.660156 0-16.4375-13.375-29.8125-29.8125-29.8125s-29.808594 13.375-29.808594 29.8125c0 8.015625 3.183594 15.296875 8.351563 20.660156-4.800781 4.257812-7.835937 10.464844-7.835937 17.367188v18.539062h-8.472657v-18.539062c0-6.902344-3.03125-13.109376-7.832031-17.367188 5.164062-5.363281 8.351562-12.644531 8.351562-20.660156 0-16.4375-13.375-29.8125-29.8125-29.8125-16.433593 0-29.808593 13.375-29.808593 29.8125 0 8.015625 3.1875 15.296875 8.351562 20.660156-4.800781 4.257812-7.832031 10.464844-7.832031 17.367188v18.539062h-7.367188v-117.152344h36.65625c4.144532 0 7.503907-3.359375 7.503907-7.5 0-4.144531-3.359375-7.503906-7.503907-7.503906h-38.832031c-7.070312 0-12.824219 5.753906-12.824219 12.828125zm170.519532-37.023437h15.179687v34.847656h-15.179687zm-37.515625 34.59375h-28.578125v-18.28125c0-4.53125 3.6875-8.21875 8.21875-8.21875h12.140625c4.535156 0 8.21875 3.6875 8.21875 8.21875zm-14.289063-71.121094c8.167969 0 14.808594 6.644531 14.808594 14.808594 0 8.164062-6.644531 14.808594-14.808594 14.808594-8.164062 0-14.804687-6.644532-14.804687-14.808594-.003907-8.164063 6.640625-14.808594 14.804687-14.808594zm-52.769531 71.121094h-28.578125v-18.28125c0-4.53125 3.6875-8.21875 8.21875-8.21875h12.140625c4.535156 0 8.21875 3.6875 8.21875 8.21875zm-14.289063-71.121094c8.167969 0 14.808594 6.644531 14.808594 14.808594 0 8.164062-6.640625 14.808594-14.808594 14.808594-8.164062 0-14.804687-6.644532-14.804687-14.808594 0-8.164063 6.640625-14.808594 14.804687-14.808594zm0 0"/><path d="m100.308594 240.058594h-54.855469c-4.140625 0-7.5-3.359375-7.5-7.5 0-4.144532 3.359375-7.503906 7.5-7.503906h54.855469c4.140625 0 7.5 3.359374 7.5 7.503906 0 4.140625-3.359375 7.5-7.5 7.5zm0 0"/><path d="m229.402344 240.058594h-14.742188c-4.144531 0-7.5-3.359375-7.5-7.5 0-4.144532 3.355469-7.503906 7.5-7.503906h14.742188c4.140625 0 7.5 3.359374 7.5 7.503906 0 4.140625-3.359375 7.5-7.5 7.5zm0 0"/><path d="m180.320312 240.058594h-46.339843c-4.144531 0-7.5-3.359375-7.5-7.5 0-4.144532 3.355469-7.503906 7.5-7.503906h46.339843c4.144532 0 7.503907 3.359374 7.503907 7.503906 0 4.140625-3.359375 7.5-7.503907 7.5zm0 0"/><path d="m73.175781 211.339844h-27.722656c-4.140625 0-7.5-3.359375-7.5-7.503906 0-4.140626 3.359375-7.5 7.5-7.5h27.722656c4.140625 0 7.5 3.359374 7.5 7.5 0 4.144531-3.359375 7.503906-7.5 7.503906zm0 0"/><path d="m169.246094 211.339844h-61.773438c-4.140625 0-7.5-3.359375-7.5-7.503906 0-4.140626 3.359375-7.5 7.5-7.5h61.773438c4.144531 0 7.5 3.359374 7.5 7.5 0 4.144531-3.355469 7.503906-7.5 7.503906zm0 0"/><path d="m231.148438 211.339844h-27.976563c-4.140625 0-7.5-3.359375-7.5-7.503906 0-4.140626 3.359375-7.5 7.5-7.5h27.976563c4.140624 0 7.5 3.359374 7.5 7.5 0 4.144531-3.355469 7.503906-7.5 7.503906zm0 0"/><path d="m311.675781 240.058594h-30.824219c-4.140624 0-7.5-3.359375-7.5-7.5 0-4.144532 3.359376-7.503906 7.5-7.503906h30.824219c4.144531 0 7.503907 3.359374 7.503907 7.503906 0 4.140625-3.359376 7.5-7.503907 7.5zm0 0"/><path d="m464.800781 240.058594h-23.101562c-4.140625 0-7.5-3.359375-7.5-7.5 0-4.144532 3.359375-7.503906 7.5-7.503906h23.101562c4.144531 0 7.5 3.359374 7.5 7.503906 0 4.140625-3.355469 7.5-7.5 7.5zm0 0"/><path d="m407.027344 240.058594h-61.34375c-4.144532 0-7.5-3.359375-7.5-7.5 0-4.144532 3.355468-7.503906 7.5-7.503906h61.34375c4.140625 0 7.5 3.359374 7.5 7.503906 0 4.140625-3.359375 7.5-7.5 7.5zm0 0"/><path d="m325.007812 211.339844h-44.15625c-4.140624 0-7.5-3.359375-7.5-7.503906 0-4.140626 3.359376-7.5 7.5-7.5h44.15625c4.144532 0 7.503907 3.359374 7.503907 7.5 0 4.144531-3.359375 7.503906-7.503907 7.503906zm0 0"/><path d="m464.800781 211.339844h-34.4375c-4.140625 0-7.5-3.359375-7.5-7.503906 0-4.140626 3.359375-7.5 7.5-7.5h34.4375c4.144531 0 7.5 3.359374 7.5 7.5 0 4.144531-3.355469 7.503906-7.5 7.503906zm0 0"/><path d="m395.949219 211.339844h-36.261719c-4.144531 0-7.503906-3.359375-7.503906-7.503906 0-4.140626 3.359375-7.5 7.503906-7.5h36.261719c4.144531 0 7.503906 3.359374 7.503906 7.5 0 4.144531-3.359375 7.503906-7.503906 7.503906zm0 0"/><path d="m100.308594 471.683594h-54.855469c-4.140625 0-7.5-3.355469-7.5-7.5 0-4.144532 3.359375-7.503906 7.5-7.503906h54.855469c4.140625 0 7.5 3.359374 7.5 7.503906 0 4.144531-3.359375 7.5-7.5 7.5zm0 0"/><path d="m229.402344 471.683594h-14.742188c-4.144531 0-7.5-3.355469-7.5-7.5 0-4.144532 3.355469-7.503906 7.5-7.503906h14.742188c4.140625 0 7.5 3.359374 7.5 7.503906 0 4.144531-3.359375 7.5-7.5 7.5zm0 0"/><path d="m180.320312 471.683594h-46.339843c-4.144531 0-7.5-3.355469-7.5-7.5 0-4.144532 3.355469-7.503906 7.5-7.503906h46.339843c4.144532 0 7.503907 3.359374 7.503907 7.503906 0 4.144531-3.359375 7.5-7.503907 7.5zm0 0"/><path d="m73.175781 442.964844h-27.722656c-4.140625 0-7.5-3.359375-7.5-7.5 0-4.144532 3.359375-7.503906 7.5-7.503906h27.722656c4.140625 0 7.5 3.359374 7.5 7.503906 0 4.140625-3.359375 7.5-7.5 7.5zm0 0"/><path d="m169.246094 442.964844h-61.773438c-4.140625 0-7.5-3.359375-7.5-7.5 0-4.144532 3.359375-7.503906 7.5-7.503906h61.773438c4.144531 0 7.5 3.359374 7.5 7.503906 0 4.140625-3.355469 7.5-7.5 7.5zm0 0"/><path d="m231.148438 442.964844h-27.976563c-4.140625 0-7.5-3.359375-7.5-7.5 0-4.144532 3.359375-7.503906 7.5-7.503906h27.976563c4.140624 0 7.5 3.359374 7.5 7.503906 0 4.140625-3.355469 7.5-7.5 7.5zm0 0"/><path d="m311.675781 471.683594h-30.824219c-4.140624 0-7.5-3.355469-7.5-7.5 0-4.144532 3.359376-7.503906 7.5-7.503906h30.824219c4.144531 0 7.503907 3.359374 7.503907 7.503906 0 4.144531-3.359376 7.5-7.503907 7.5zm0 0"/><path d="m464.800781 471.683594h-23.101562c-4.140625 0-7.5-3.355469-7.5-7.5 0-4.144532 3.359375-7.503906 7.5-7.503906h23.101562c4.144531 0 7.5 3.359374 7.5 7.503906 0 4.144531-3.355469 7.5-7.5 7.5zm0 0"/><path d="m407.027344 471.683594h-61.34375c-4.144532 0-7.5-3.355469-7.5-7.5 0-4.144532 3.355468-7.503906 7.5-7.503906h61.34375c4.140625 0 7.5 3.359374 7.5 7.503906 0 4.144531-3.359375 7.5-7.5 7.5zm0 0"/><path d="m325.007812 442.964844h-44.15625c-4.140624 0-7.5-3.359375-7.5-7.5 0-4.144532 3.359376-7.503906 7.5-7.503906h44.15625c4.144532 0 7.503907 3.359374 7.503907 7.503906 0 4.140625-3.359375 7.5-7.503907 7.5zm0 0"/><path d="m464.800781 442.964844h-34.4375c-4.140625 0-7.5-3.359375-7.5-7.5 0-4.144532 3.359375-7.503906 7.5-7.503906h34.4375c4.144531 0 7.5 3.359374 7.5 7.503906 0 4.140625-3.355469 7.5-7.5 7.5zm0 0"/><path d="m395.949219 442.964844h-36.261719c-4.144531 0-7.503906-3.359375-7.503906-7.5 0-4.144532 3.359375-7.503906 7.503906-7.503906h36.261719c4.144531 0 7.503906 3.359374 7.503906 7.503906 0 4.140625-3.359375 7.5-7.503906 7.5zm0 0"/></svg>