<svg id="icon" height="512" viewBox="0 0 128 128" width="512" xmlns="http://www.w3.org/2000/svg"><path d="m35.192 96.925h57.616a0 0 0 0 1 0 0v2.358a.82.82 0 0 1 -.82.82h-55.975a.82.82 0 0 1 -.82-.82v-2.358a0 0 0 0 1 -.001 0z" fill="#dbd8dd"/><g fill="#eeefee"><path d="m28.973 36.508h3.281a.82.82 0 0 1 .82.82v4.391a.82.82 0 0 1 -.82.82h-3.281a0 0 0 0 1 0 0v-6.031a0 0 0 0 1 0 0z" transform="matrix(-1 0 0 -1 62.046 79.048)"/><path d="m94.928 36.508h3.281a.82.82 0 0 1 .82.82v4.391a.82.82 0 0 1 -.82.82h-3.281a0 0 0 0 1 0 0v-6.031a0 0 0 0 1 0 0z"/><path d="m32.033 31.587h64.108a0 0 0 0 1 0 0v63.835a2.734 2.734 0 0 1 -2.734 2.734h-58.64a2.734 2.734 0 0 1 -2.734-2.734v-63.835a0 0 0 0 1 0 0z"/></g><path d="m96.139 31.589v18.178h-18.793a5.126 5.126 0 0 0 -5.126 5.126v14.42a3.143 3.143 0 0 1 -3.143 3.143 3.144 3.144 0 0 1 -3.144-3.143v-14.83a3.759 3.759 0 0 0 -3.76-3.76 3.759 3.759 0 0 0 -3.76 3.76v10.457a3.417 3.417 0 0 1 -3.413 3.416 3.416 3.416 0 0 1 -3.416-3.416v-5.54a3.35 3.35 0 0 0 -3.35-3.351 3.351 3.351 0 0 0 -3.354 3.351v4.24a3.075 3.075 0 0 1 -3.075 3.075 3.076 3.076 0 0 1 -3.076-3.075v-9.569a5.4 5.4 0 0 0 -5.4-5.4h-1.3v-17.082z" fill="#ef5261"/><path d="m105 41.578a46.834 46.834 0 0 1 -6.782 22.122c-6.259 9.872-16.232 15.826-29.445 17.748a33.162 33.162 0 0 1 -9.542 0c-13.214-1.925-23.19-7.879-29.449-17.748a46.834 46.834 0 0 1 -6.782-22.122 2.931 2.931 0 0 1 .816-2.173 2.974 2.974 0 0 1 2.141-.915h3.014v2.461h-3.011a.5.5 0 0 0 -.361.155.488.488 0 0 0 -.135.361c.357 7.891 3.88 32.9 33.517 37.478a32.86 32.86 0 0 0 10.042 0c29.634-4.582 33.159-29.586 33.513-37.477a.488.488 0 0 0 -.135-.361.5.5 0 0 0 -.361-.155h-3.01v-2.462h3.01a2.974 2.974 0 0 1 2.141.915 2.931 2.931 0 0 1 .819 2.173z" fill="#575b6d"/><rect fill="#ef5261" height="5.604" rx="2.802" width="71.489" x="28.342" y="27.897"/><path d="m32.033 33.501h64.106v1.914h-64.106z" fill="#da364c"/></svg>