<?xml version="1.0" encoding="iso-8859-1"?>
<!-- Generator: Adobe Illustrator 19.0.0, SVG Export Plug-In . SVG Version: 6.00 Build 0)  -->
<svg version="1.1" id="Capa_1" xmlns="http://www.w3.org/2000/svg" xmlns:xlink="http://www.w3.org/1999/xlink" x="0px" y="0px"
	 viewBox="0 0 512 512" style="enable-background:new 0 0 512 512;" xml:space="preserve">
<g>
	<g>
		<path d="M502,116.021h-14.069v-20.27c0-11.336-4.175-21.71-11.055-29.688c1.186-1.644,1.893-3.657,1.893-5.839V10
			c0-5.523-4.478-10-10-10H335.758c-5.522,0-10,4.477-10,10v50.225c0,1.408,0.294,2.747,0.82,3.963
			c-4.898,6.115-7.916,13.789-8.102,22.121c-0.047,2.058-0.667,4.056-1.793,5.777l-15.665,23.935H10c-5.523,0-10,4.478-10,10v206
			c0,5.522,4.477,10,10,10h14.069v74.228c0,11.336,4.175,21.71,11.054,29.688c-1.186,1.644-1.893,3.657-1.893,5.839V502
			c0,5.522,4.478,10,10,10h133.012c5.522,0,10-4.478,10-10v-50.225c0-1.408-0.294-2.747-0.82-3.963
			c4.898-6.115,7.916-13.79,8.102-22.121c0.047-2.058,0.667-4.056,1.793-5.777l37.682-57.572c0.103-0.156,0.2-0.315,0.293-0.477
			c3.503-6.067,4.703-13.028,3.478-19.845h99.509c-1.871,13.241,1.911,26.602,10.518,36.927
			c9.023,10.824,22.281,17.032,36.373,17.032c14.093,0,27.351-6.208,36.374-17.033c8.607-10.325,12.39-23.685,10.518-36.926H502
			c5.522,0,10-4.478,10-10v-206C512,120.498,507.522,116.021,502,116.021z M458.77,20v30.225h-16.365h-87.031h-9.615V20H458.77z
			 M294.959,162.966c0.003-0.012,0.004-0.024,0.006-0.036c0.053-0.26,0.123-0.519,0.199-0.776c0.011-0.038,0.019-0.078,0.031-0.116
			c0.072-0.231,0.16-0.459,0.251-0.687c0.024-0.061,0.043-0.123,0.069-0.183c0.1-0.237,0.217-0.47,0.338-0.701
			c0.023-0.044,0.041-0.089,0.064-0.133l18.116-27.678l0.759-1.16l18.626-28.459c3.175-4.853,4.922-10.482,5.052-16.282
			c0.204-9.114,7.786-16.53,16.903-16.53h87.031c14.075,0,25.526,11.451,25.526,25.526v30.27V236.87c0,0.155-0.004,0.31-0.013,0.474
			c-0.244,4.647-3.906,8.386-8.331,8.511c-0.081,0.002-0.162,0.003-0.243,0.003c-4.5,0-8.24-3.434-8.567-7.918
			c-0.008-0.105-0.027-0.207-0.038-0.312v-50.434c0-5.522-4.478-10-10-10c-5.523,0-10,4.478-10,10v51.556
			c0,0.362,0.021,0.718,0.059,1.07l-0.121,25.875c-0.205,1.929-1.074,3.745-2.448,5.124c-0.204,0.203-0.416,0.395-0.636,0.576
			c-1.538,1.261-3.445,1.948-5.452,1.948c-4.475,0-8.234-3.48-8.559-7.924c-0.008-0.108-0.028-0.213-0.039-0.32v-77.903
			c0-5.522-4.477-10-10-10c-5.522,0-10,4.478-10,10v77.919c-0.011,0.102-0.029,0.201-0.037,0.304
			c-0.325,4.443-4.082,7.924-8.552,7.924c-4.391,0-8.093-3.352-8.538-7.675l-0.125-10.927c-0.004-0.32-0.025-0.635-0.058-0.947
			v-66.599c0-5.522-4.478-10-10-10c-5.522,0-10,4.478-10,10v67.66c0,0.152,0.016,0.3,0.023,0.451l-0.037,0.741
			c-0.075,1.449-0.483,2.809-1.145,3.999c-1.457,2.617-4.139,4.407-7.189,4.493c-0.083,0.003-0.165,0.004-0.246,0.004
			c-4.302,0-7.931-3.204-8.504-7.387c-0.038-0.279-0.063-0.562-0.073-0.849c0-0.021-0.001-0.041-0.002-0.062v-1.781
			c0.006-0.137,0.009-0.274,0.009-0.413l0.089-92.047v-0.001c0.004-4.424-2.9-8.325-7.138-9.592
			c-4.244-1.267-8.808,0.404-11.229,4.105l-8.202,12.532c-0.103,0.156-0.2,0.316-0.293,0.477c-1.254,2.172-3.279,3.727-5.702,4.375
			c-2.424,0.648-4.952,0.316-7.126-0.938c-0.276-0.159-0.541-0.331-0.794-0.513c-0.005-0.004-0.01-0.009-0.015-0.012
			c-1.743-1.26-2.942-3.039-3.509-4.999c-0.008-0.029-0.019-0.056-0.027-0.085c-0.073-0.262-0.133-0.527-0.183-0.794
			c-0.004-0.024-0.011-0.047-0.015-0.071c-0.052-0.287-0.09-0.576-0.115-0.867c0-0.003-0.001-0.005-0.001-0.007
			C294.733,164.737,294.782,163.846,294.959,162.966z M166.242,492H53.23v-30.225h113.012V492z M216.084,351.664l-37.502,57.299
			c-3.175,4.853-4.922,10.482-5.052,16.282c-0.204,9.114-7.786,16.53-16.903,16.53H69.596c-14.075,0-25.526-11.451-25.526-25.526
			v-84.228v-56.89c0-0.155,0.004-0.31,0.013-0.474c0.244-4.648,3.906-8.386,8.331-8.511c0.079-0.002,0.157-0.003,0.236-0.003
			c0.376,0,0.748,0.031,1.115,0.079c0.063,0.008,0.126,0.018,0.189,0.027c2.334,0.359,4.437,1.662,5.783,3.601
			c0.013,0.019,0.027,0.039,0.04,0.058c0.219,0.321,0.419,0.657,0.594,1.011c0.118,0.239,0.225,0.482,0.323,0.742
			c0.131,0.343,0.232,0.698,0.317,1.056c0.019,0.081,0.037,0.163,0.054,0.245c0.074,0.359,0.132,0.723,0.16,1.092
			c0,0.002,0.001,0.004,0.001,0.004c0.008,0.107,0.027,0.208,0.038,0.311v50.436c0,5.522,4.478,10,10,10c5.522,0,10-4.478,10-10
			v-51.277c0-0.365-0.022-0.724-0.06-1.078l0.123-26.145c0.001-0.007,0.002-0.013,0.003-0.02c0.028-0.259,0.071-0.514,0.121-0.767
			c0.024-0.119,0.055-0.236,0.085-0.354c0.034-0.137,0.069-0.274,0.109-0.409c0.04-0.133,0.084-0.265,0.131-0.396
			c0.043-0.121,0.09-0.242,0.139-0.361c0.051-0.126,0.103-0.253,0.161-0.376c0.068-0.147,0.144-0.29,0.221-0.434
			c0.047-0.087,0.089-0.176,0.139-0.262c0.166-0.283,0.35-0.555,0.545-0.816c0.045-0.061,0.091-0.12,0.138-0.18
			c0.207-0.263,0.424-0.518,0.656-0.751c0.266-0.265,0.552-0.505,0.848-0.733c0.072-0.056,0.146-0.11,0.22-0.163
			c0.276-0.199,0.562-0.385,0.859-0.55c0.032-0.017,0.061-0.039,0.093-0.056c0.108-0.058,0.222-0.106,0.332-0.16
			c0.141-0.068,0.281-0.141,0.425-0.201c0.086-0.036,0.174-0.062,0.26-0.095c0.175-0.066,0.349-0.135,0.529-0.189
			c0.307-0.093,0.622-0.168,0.941-0.227c0.073-0.013,0.147-0.021,0.221-0.033c0.259-0.04,0.519-0.071,0.781-0.088
			c0.09-0.006,0.181-0.01,0.271-0.013c0.244-0.009,0.487-0.006,0.73,0.005c0.098,0.005,0.197,0.006,0.295,0.014
			c0.242,0.019,0.479,0.054,0.716,0.093c3.82,0.649,6.839,3.837,7.128,7.796c0.003,0.044,0.012,0.085,0.016,0.128v78.095
			c0,5.522,4.478,10,10,10c5.522,0,10-4.478,10-10v-77.727c0.021-0.165,0.048-0.329,0.061-0.497c0.043-0.594,0.153-1.17,0.313-1.724
			c0.076-0.262,0.163-0.527,0.276-0.798c0-0.001,0.001-0.001,0.001-0.001c0.129-0.311,0.282-0.625,0.456-0.942
			c0.165-0.298,0.338-0.576,0.519-0.837c0.01-0.014,0.018-0.028,0.028-0.041c0.125-0.178,0.257-0.334,0.389-0.494
			c0.128-0.153,0.261-0.301,0.4-0.444c0.139-0.143,0.277-0.286,0.434-0.424c0.042-0.038,0.086-0.072,0.129-0.109
			c0.234-0.198,0.481-0.393,0.751-0.58c0.582-0.404,1.207-0.732,1.857-0.976c0.232-0.087,0.448-0.158,0.655-0.221
			c0.531-0.152,1.083-0.252,1.649-0.298c0.506-0.039,1.017-0.04,1.518,0.006c2.953,0.284,5.505,2.083,6.817,4.623
			c0.001,0.003,0.003,0.005,0.004,0.008c0.102,0.199,0.194,0.404,0.281,0.612c0.019,0.046,0.04,0.09,0.058,0.136
			c0.069,0.173,0.128,0.35,0.185,0.528c0.026,0.082,0.055,0.164,0.079,0.247c0.055,0.19,0.102,0.384,0.144,0.58
			c0.011,0.053,0.026,0.106,0.036,0.16c0.049,0.253,0.088,0.509,0.114,0.769l0.18,10.067c0,0,0,0.007,0,0.01v68.369
			c0,5.522,4.477,10,10,10c5.522,0,10-4.478,10-10v-68.33c0-0.013,0.002-0.026,0.002-0.039c0-0.159,0.004-0.314,0.014-0.485
			c0.058-1.135,0.323-2.237,0.789-3.276c0.112-0.25,0.238-0.501,0.374-0.743c0.27-0.479,0.584-0.936,0.934-1.36
			c0.105-0.127,0.229-0.265,0.362-0.408c0.014-0.015,0.028-0.032,0.043-0.047c0.112-0.118,0.243-0.242,0.374-0.365
			c0.061-0.057,0.12-0.115,0.183-0.17c0.113-0.1,0.239-0.201,0.365-0.301c0.098-0.078,0.196-0.157,0.298-0.23
			c0.095-0.07,0.2-0.136,0.302-0.205c0.144-0.095,0.288-0.192,0.437-0.278c0.048-0.028,0.102-0.053,0.151-0.08
			c0.384-0.211,0.784-0.393,1.199-0.542c0.048-0.017,0.093-0.038,0.142-0.055c0.161-0.055,0.327-0.097,0.493-0.141
			c0.157-0.042,0.316-0.082,0.481-0.116c0.134-0.028,0.269-0.053,0.405-0.074c0.322-0.048,0.651-0.088,1.001-0.098
			c4.708-0.139,8.655,3.56,8.823,8.232c0,0.02,0.001,0.041,0.002,0.061v1.781c-0.006,0.137-0.009,0.274-0.009,0.413l-0.089,92.048
			c-0.004,4.424,2.899,8.325,7.138,9.592c4.244,1.264,8.807-0.404,11.23-4.105l8.202-12.532c0.102-0.156,0.2-0.315,0.293-0.477
			c0.572-0.99,1.31-1.845,2.168-2.551c0.032-0.025,0.066-0.046,0.098-0.071c0.172-0.136,0.35-0.263,0.529-0.387
			c0.014-0.01,0.098-0.066,0.111-0.076c0.155-0.103,0.311-0.206,0.471-0.301c0.021-0.013,0.042-0.024,0.063-0.036
			c0.551-0.316,1.148-0.581,1.766-0.783l0.219-0.071c0.164-0.05,0.329-0.098,0.48-0.134L205.92,338
			c0.248-0.053,0.512-0.097,0.77-0.13l0.811-0.068c0.132-0.005,0.264-0.012,0.388-0.012c0.146-0.006,0.279,0.003,0.407,0.01
			c0.164,0.008,0.328,0.021,0.447,0.033l0.428,0.041c0.077,0.01,0.144,0.025,0.218,0.037c0.144,0.024,0.287,0.048,0.43,0.078
			c0.083,0.021,0.166,0.043,0.242,0.062c0.212,0.052,0.422,0.108,0.613,0.169l0.289,0.102c0.184,0.064,0.365,0.137,0.564,0.221
			l0.235,0.099c0.073,0.034,0.131,0.063,0.197,0.095c0.196,0.096,0.394,0.19,0.585,0.301c0.137,0.079,0.265,0.171,0.398,0.256
			c0.045,0.031,0.085,0.057,0.133,0.092c0.03,0.022,0.061,0.043,0.091,0.063c0.184,0.127,0.356,0.264,0.528,0.4
			c0.081,0.065,0.169,0.121,0.252,0.183c1.437,1.223,2.474,2.846,2.973,4.707C217.539,347.088,217.245,349.538,216.084,351.664z
			 M258.531,259.867l-0.732-0.134c-2.919-0.534-5.923,0.256-8.201,2.157c-2.278,1.9-3.596,4.713-3.596,7.68v52.451h-22.954
			c-0.167-0.102-0.334-0.201-0.501-0.297c-0.004-0.002-0.007-0.005-0.011-0.007c-0.001-0.001-0.003-0.001-0.005-0.002
			c-0.002-0.001-0.004-0.003-0.006-0.003c-0.453-0.261-0.936-0.515-1.439-0.766c-0.262-0.133-0.525-0.259-0.789-0.383
			c-0.064-0.029-0.119-0.059-0.183-0.089c-0.225-0.104-0.448-0.2-0.675-0.295l-0.004-0.002c-0.969-0.417-1.95-0.778-2.941-1.084
			c-0.271-0.083-0.547-0.165-0.829-0.242c-0.306-0.085-0.612-0.167-0.92-0.241c-0.19-0.05-0.38-0.1-0.559-0.139
			c-0.217-0.048-0.447-0.089-0.671-0.133c-0.144-0.028-0.288-0.059-0.433-0.085c-0.444-0.08-0.901-0.152-1.377-0.216
			c-0.059-0.008-0.117-0.012-0.176-0.019c-0.213-0.026-0.426-0.047-0.639-0.069l-0.148-0.015c-0.077-0.008-0.156-0.01-0.233-0.017
			c-0.512-0.046-1.024-0.083-1.537-0.102c-0.307-0.011-0.613-0.022-0.927-0.024c-0.066,0-0.131,0.004-0.197,0.004
			c-0.318,0.001-0.634,0.009-0.951,0.02c-0.065,0.002-0.13,0.001-0.195,0.004l-0.152,0.006c-0.354,0.012-0.707,0.027-1.136,0.062
			c-0.352,0.031-0.703,0.074-1.055,0.12l-0.182,0.023c-0.018,0.002-0.035,0.007-0.052,0.009c-0.898,0.116-1.79,0.269-2.673,0.466
			c-0.175,0.037-0.355,0.075-0.508,0.113c-0.149,0.036-0.303,0.085-0.452,0.124c-0.322,0.083-0.642,0.168-0.961,0.262
			c-0.067,0.02-0.129,0.034-0.197,0.054c-0.212,0.064-0.422,0.133-0.64,0.204c-0.054,0.018-0.107,0.039-0.16,0.057
			c-0.338,0.112-0.673,0.233-1.007,0.358c-0.183,0.068-0.364,0.14-0.546,0.212c-0.337,0.134-0.674,0.269-1.006,0.415
			c-0.134,0.059-0.264,0.124-0.396,0.184c-0.651,0.298-1.291,0.621-1.92,0.967c-0.122,0.067-0.247,0.128-0.367,0.197
			c-0.057,0.031-0.113,0.064-0.169,0.096c-0.005,0.003-0.009,0.006-0.014,0.008c-0.077,0.045-0.158,0.083-0.235,0.128l0.06-62.189
			c0.007-0.152,0.011-0.307,0.011-0.461v-0.001v-3.792c0-0.247-0.009-0.495-0.026-0.744c0-0.006-0.001-0.011-0.001-0.011
			c-0.001-0.021-0.001-0.037-0.002-0.053c-0.011-0.234-0.034-0.465-0.051-0.697c-0.017-0.238-0.029-0.477-0.052-0.713
			c-0.019-0.196-0.048-0.39-0.071-0.585c-0.033-0.282-0.063-0.565-0.105-0.844c-0.017-0.113-0.04-0.224-0.058-0.337
			c-2.243-13.898-14.562-24.401-28.995-23.987c-0.01,0-0.019,0-0.029,0c-0.025,0.001-0.049,0.004-0.075,0.004
			c-0.553,0.017-1.104,0.049-1.653,0.098c-0.127,0.012-0.252,0.033-0.378,0.046c-0.446,0.046-0.891,0.095-1.332,0.163
			c-0.084,0.013-0.166,0.032-0.249,0.046c-3.255,0.527-6.384,1.616-9.251,3.215c-2.151-3.128-4.928-5.822-8.2-7.909
			c-1.484-0.946-3.065-1.76-4.698-2.416c-1.66-0.668-3.398-1.182-5.173-1.528c-0.58-0.113-1.166-0.201-1.754-0.277
			c-0.135-0.018-0.271-0.033-0.406-0.049c-0.392-0.046-0.784-0.083-1.177-0.112c-0.186-0.014-0.37-0.029-0.557-0.04
			c-0.439-0.024-0.879-0.037-1.319-0.042c-0.094-0.001-0.186-0.009-0.279-0.009c-0.903,0-1.797,0.044-2.68,0.128
			c-0.292,0.027-0.583,0.065-0.875,0.101c-0.128,0.016-0.258,0.029-0.386,0.046c-0.522,0.072-1.042,0.154-1.558,0.254
			c-1.493,0.292-2.968,0.715-4.508,1.29c-0.174,0.065-0.344,0.143-0.517,0.212c-0.26,0.104-0.52,0.207-0.776,0.318
			c-0.306,0.132-0.608,0.273-0.91,0.416c-0.104,0.05-0.208,0.101-0.313,0.151c-1.292,0.632-2.543,1.351-3.729,2.172
			c-0.12,0.083-0.226,0.18-0.345,0.265c-0.466,0.334-0.918,0.685-1.363,1.046c-0.203,0.163-0.425,0.31-0.622,0.478
			c-1.017-0.87-2.099-1.673-3.242-2.402c-1.484-0.947-3.066-1.761-4.704-2.419c-1.661-0.668-3.397-1.182-5.17-1.527
			c-0.09-0.018-0.181-0.027-0.271-0.044c-0.447-0.084-0.898-0.157-1.352-0.219c-0.157-0.021-0.315-0.036-0.473-0.055
			c-0.396-0.048-0.794-0.088-1.194-0.119c-0.138-0.01-0.277-0.02-0.415-0.029c-0.494-0.031-0.99-0.051-1.489-0.056
			c-0.034,0-0.067-0.002-0.101-0.002c-0.066,0-0.131-0.004-0.197-0.004c-1.098,0-2.186,0.069-3.262,0.19
			c-0.044,0.005-0.088,0.011-0.132,0.016c-0.54,0.064-1.077,0.143-1.61,0.236c-0.034,0.006-0.068,0.011-0.102,0.018
			c-3.646,0.655-7.107,2.009-10.228,4c-0.043,0.028-0.087,0.055-0.13,0.082c-0.556,0.359-1.103,0.733-1.636,1.132
			c-0.003,0.002-0.006,0.005-0.009,0.007c-0.482,0.361-0.952,0.743-1.414,1.137c-0.118,0.1-0.235,0.201-0.352,0.303
			c-0.445,0.392-0.884,0.794-1.309,1.216c-0.015,0.015-0.032,0.029-0.047,0.044s-0.028,0.031-0.043,0.046
			c-0.372,0.375-0.729,0.762-1.079,1.155c-0.107,0.12-0.211,0.241-0.316,0.362c-0.303,0.352-0.598,0.711-0.882,1.076
			c-0.058,0.074-0.118,0.146-0.175,0.22c-0.32,0.42-0.625,0.85-0.921,1.285c-0.101,0.149-0.2,0.3-0.298,0.451
			c-0.215,0.331-0.424,0.665-0.625,1.004c-0.064,0.107-0.135,0.21-0.198,0.318c-0.024,0.042-0.045,0.085-0.069,0.127
			c-0.213,0.374-0.418,0.753-0.614,1.136c-0.135,0.262-0.259,0.529-0.385,0.794c-0.071,0.151-0.144,0.301-0.213,0.453
			c-0.132,0.291-0.258,0.585-0.38,0.88c-0.048,0.116-0.094,0.232-0.14,0.348c-0.129,0.324-0.254,0.648-0.371,0.976
			c-0.011,0.03-0.02,0.061-0.031,0.091c-0.372,1.057-0.678,2.134-0.922,3.23c-0.041,0.184-0.083,0.369-0.12,0.554
			c-0.05,0.249-0.097,0.498-0.14,0.748c-0.047,0.266-0.088,0.534-0.127,0.802c-0.028,0.194-0.058,0.387-0.082,0.582
			c-0.058,0.466-0.107,0.933-0.142,1.404c-0.001,0.012-0.003,0.023-0.003,0.034c-0.017,0.229-0.025,0.457-0.026,0.686l-0.008,1.667
			c-0.396-0.125-0.804-0.219-1.206-0.327v-71.038H131.6c5.523,0,10-4.478,10-10c0-5.523-4.477-10-10-10H50.112
			c-5.522,0-10,4.477-10,10v83.014c-8.811,4.419-15.127,13.322-15.944,23.719c-0.02,0.256-0.045,0.511-0.059,0.769
			c-0.026,0.499-0.04,1.011-0.04,1.523v46.89H20v0v-186h226v60.33c0,2.969,1.319,5.784,3.601,7.685
			c2.282,1.899,5.291,2.686,8.209,2.15l0.723-0.133c8.008-1.465,16.187,0.684,22.44,5.895c6.253,5.213,9.839,12.871,9.839,21.012
			c0,8.141-3.586,15.799-9.84,21.012C274.719,259.183,266.544,261.331,258.531,259.867z M492,322.021h-73.894
			c-2.967,0-5.781,1.317-7.681,3.597c-1.9,2.279-2.69,5.284-2.156,8.203l1.808,9.881c1.466,8.008-0.684,16.186-5.895,22.439
			c-5.213,6.253-12.871,9.839-21.012,9.839c-8.14,0-15.798-3.586-21.011-9.839c-5.212-6.253-7.361-14.432-5.896-22.439l1.809-9.881
			c0.534-2.919-0.256-5.925-2.155-8.204c-1.9-2.279-4.714-3.597-7.682-3.597H266v-41.767c10.098-0.534,19.835-4.3,27.777-10.92
			c9.472-7.896,15.409-19.033,16.745-31.135c0.191-1.729,0.288-3.477,0.288-5.239c0-14.093-6.208-27.351-17.033-36.374
			c-0.913-0.761-1.853-1.48-2.811-2.166c-0.083-0.06-0.164-0.123-0.248-0.183c-7.322-5.164-15.882-8.105-24.718-8.572V136.02h21.927
			l-8.926,13.638c-0.103,0.156-0.2,0.315-0.293,0.477c-0.251,0.435-0.489,0.874-0.717,1.317c-0.029,0.056-0.054,0.113-0.082,0.17
			c-0.198,0.392-0.389,0.787-0.569,1.186c-0.003,0.008-0.006,0.015-0.01,0.023c-2.764,6.15-3.327,13.006-1.559,19.607
			c1.768,6.599,5.683,12.253,11.149,16.197c0.008,0.006,0.017,0.013,0.025,0.019c0.35,0.252,0.708,0.494,1.07,0.731
			c0.058,0.038,0.114,0.079,0.172,0.117c0.418,0.27,0.844,0.531,1.278,0.782c0.535,0.309,1.08,0.594,1.628,0.867
			c0.135,0.067,0.271,0.132,0.408,0.197c0.483,0.232,0.97,0.45,1.462,0.654c0.066,0.027,0.132,0.058,0.199,0.084
			c5.887,2.39,12.358,2.805,18.605,1.134c2.618-0.702,5.087-1.741,7.36-3.081l-0.06,62.168c-0.007,0.152-0.011,0.307-0.011,0.461
			v0.001v3.792c0,0.275,0.01,0.543,0.029,0.81c0.74,15.447,13.833,27.624,29.358,27.161c0.002,0,0.003,0,0.005,0
			c0.104-0.003,0.207-0.014,0.311-0.019c4.555-0.179,8.858-1.454,12.645-3.587c0.944,1.367,2.007,2.645,3.168,3.825
			c0.035,0.035,0.067,0.073,0.102,0.109c0.084,0.084,0.173,0.162,0.258,0.245c5.186,5.095,12.278,8.237,20.017,8.237
			c7.049,0,13.566-2.604,18.591-6.921c5.026,4.316,11.546,6.921,18.597,6.921c7.628,0,14.807-2.971,20.232-8.384
			c4.839-4.853,7.778-11.273,8.276-18.078c0.017-0.228,0.025-0.456,0.026-0.684l0.008-1.667c2.978,0.941,6.158,1.401,9.461,1.317
			c14.524-0.409,26.54-12.072,27.689-26.685c0.02-0.256,0.045-0.511,0.059-0.769c0.026-0.499,0.04-1.011,0.04-1.523V136.02H492
			V322.021z"/>
	</g>
</g>
<g>
	<g>
		<path d="M178.739,164.15c-0.131-0.64-0.32-1.27-0.57-1.87c-0.25-0.6-0.561-1.18-0.92-1.729c-0.37-0.55-0.79-1.06-1.25-1.521
			c-0.46-0.46-0.97-0.88-1.52-1.239c-0.54-0.36-1.12-0.67-1.72-0.92c-0.61-0.25-1.24-0.44-1.87-0.57c-3.26-0.65-6.7,0.41-9.03,2.729
			c-0.46,0.461-0.88,0.971-1.239,1.521c-0.36,0.55-0.67,1.13-0.92,1.729c-0.25,0.601-0.44,1.23-0.57,1.87
			c-0.13,0.65-0.2,1.301-0.2,1.96c0,0.65,0.07,1.311,0.2,1.95c0.13,0.64,0.32,1.27,0.57,1.87s0.56,1.18,0.92,1.72
			c0.359,0.551,0.779,1.061,1.239,1.521c0.46,0.47,0.971,0.89,1.52,1.25c0.54,0.359,1.12,0.67,1.73,0.92
			c0.601,0.25,1.23,0.439,1.87,0.57c0.641,0.13,1.301,0.199,1.95,0.199c0.65,0,1.311-0.069,1.96-0.199
			c0.63-0.131,1.26-0.32,1.87-0.57c0.6-0.25,1.18-0.561,1.72-0.92c0.551-0.36,1.06-0.78,1.52-1.25c0.46-0.46,0.88-0.97,1.25-1.521
			c0.359-0.54,0.67-1.12,0.92-1.72c0.25-0.6,0.439-1.23,0.57-1.87c0.13-0.64,0.189-1.3,0.189-1.95
			C178.928,165.451,178.868,164.8,178.739,164.15z"/>
	</g>
</g>
<g>
</g>
<g>
</g>
<g>
</g>
<g>
</g>
<g>
</g>
<g>
</g>
<g>
</g>
<g>
</g>
<g>
</g>
<g>
</g>
<g>
</g>
<g>
</g>
<g>
</g>
<g>
</g>
<g>
</g>
</svg>
