<svg height="480pt" viewBox="0 0 480 480" width="480pt" xmlns="http://www.w3.org/2000/svg"><path d="m472 48c4.417969 0 8-3.582031 8-8v-32c0-4.417969-3.582031-8-8-8h-464c-4.417969 0-8 3.582031-8 8v32c0 4.417969 3.582031 8 8 8h16v272h-16c-4.417969 0-8 3.582031-8 8v32c0 4.417969 3.582031 8 8 8h198.617188l-84.6875 98.800781c-2.03125 2.371094-2.496094 5.707031-1.191407 8.542969 1.304688 2.835938 4.140625 4.652344 7.261719 4.65625h32c2.335938 0 4.550781-1.019531 6.070312-2.792969l49.929688-58.222656v53.015625c0 4.417969 3.582031 8 8 8h32c4.417969 0 8-3.582031 8-8v-53.015625l49.929688 58.222656c1.519531 1.773438 3.734374 2.792969 6.070312 2.792969h32c3.121094-.003906 5.957031-1.820312 7.261719-4.65625 1.304687-2.835938.839843-6.171875-1.191407-8.542969l-84.6875-98.800781h198.617188c4.417969 0 8-3.582031 8-8v-32c0-4.417969-3.582031-8-8-8h-16v-272zm-456-32h448v16h-448zm140.320312 448h-10.929687l70.609375-82.398438v12.796876zm91.679688 0h-16v-96h16zm75.679688 0-59.679688-69.601562v-12.796876l70.609375 82.398438zm140.320312-112h-448v-16h448zm-24-32h-400v-272h400zm0 0"/><path d="m120 256c-.0625 16.644531 12.644531 30.558594 29.226562 32 16.582032 1.441406 31.503907-10.070312 34.3125-26.476562 2.8125-16.40625-7.421874-32.226563-23.539062-36.386719v-1.136719c.027344-22.082031 17.917969-39.972656 40-40h80c30.910156-.039062 55.960938-25.089844 56-56v-1.136719c15.601562-4.027343 25.777344-19.03125 23.746094-35.015625s-15.632813-27.96875-31.746094-27.96875-29.714844 11.984375-31.746094 27.96875 8.144532 30.988282 23.746094 35.015625v1.136719c-.027344 22.082031-17.917969 39.972656-40 40h-80c-30.910156.039062-55.960938 25.089844-56 56v1.136719c-14.085938 3.636719-23.945312 16.316406-24 30.863281zm192-160c0-8.835938 7.164062-16 16-16s16 7.164062 16 16-7.164062 16-16 16-16-7.164062-16-16zm-160 144c8.835938 0 16 7.164062 16 16s-7.164062 16-16 16-16-7.164062-16-16 7.164062-16 16-16zm0 0"/><path d="m283.3125 217.375-11.3125 11.3125-11.3125-11.3125-11.3125 11.3125 11.3125 11.3125-11.3125 11.3125 11.3125 11.3125 11.3125-11.3125 11.3125 11.3125 11.3125-11.3125-11.3125-11.3125 11.3125-11.3125zm0 0"/><path d="m353.375 172.6875 11.3125 11.3125-11.3125 11.3125 11.3125 11.3125 11.3125-11.3125 11.3125 11.3125 11.3125-11.3125-11.3125-11.3125 11.3125-11.3125-11.3125-11.3125-11.3125 11.3125-11.3125-11.3125zm0 0"/><path d="m115.3125 137.375-11.3125 11.3125-11.3125-11.3125-11.3125 11.3125 11.3125 11.3125-11.3125 11.3125 11.3125 11.3125 11.3125-11.3125 11.3125 11.3125 11.3125-11.3125-11.3125-11.3125 11.3125-11.3125zm0 0"/><path d="m188.6875 134.625 11.3125-11.3125 11.3125 11.3125 11.3125-11.3125-11.3125-11.3125 11.3125-11.3125-11.3125-11.3125-11.3125 11.3125-11.3125-11.3125-11.3125 11.3125 11.3125 11.3125-11.3125 11.3125zm0 0"/><path d="m344 256h16v16h-16zm0 0"/><path d="m376 256h32v16h-32zm0 0"/><path d="m344 280h64v16h-64zm0 0"/><path d="m72 64h48v16h-48zm0 0"/><path d="m72 88h48v16h-48zm0 0"/></svg>