<?xml version="1.0" encoding="iso-8859-1"?>
<!-- Generator: Adobe Illustrator 19.0.0, SVG Export Plug-In . SVG Version: 6.00 Build 0)  -->
<svg version="1.1" id="Capa_1" xmlns="http://www.w3.org/2000/svg" xmlns:xlink="http://www.w3.org/1999/xlink" x="0px" y="0px"
	 viewBox="0 0 512 512" style="enable-background:new 0 0 512 512;" xml:space="preserve">
<g>
	<g>
		<path d="M467,61h-15v331h15c16.948,0,32.426,5.865,45,15.383V106C512,81.186,491.814,61,467,61z"/>
	</g>
</g>
<g>
	<g>
		<path d="M45,61C20.186,61,0,81.186,0,106v301.383C12.574,397.865,28.052,392,45,392h15V61H45z"/>
	</g>
</g>
<g>
	<g>
		<path d="M256,0c-24.814,0-45,20.186-45,45v15h90V45C301,20.186,280.814,0,256,0z"/>
	</g>
</g>
<g>
	<g>
		<path d="M211,90v108.494c0,2.373,0.571,4.731,1.655,6.841l30,58.506c2.563,5.01,7.719,8.159,13.345,8.159
			c5.625,0,10.781-3.149,13.345-8.159l30-58.506c1.084-2.109,1.655-4.468,1.655-6.841V90H211z"/>
	</g>
</g>
<g>
	<g>
		<path d="M282.678,292.815C275.069,298.495,265.926,302,256,302c-9.924,0-19.067-3.505-26.678-9.185L193.041,317L256,358.968
			L318.959,317L282.678,292.815z"/>
	</g>
</g>
<g>
	<g>
		<polygon points="271,385.027 271,438.978 331,398.973 331,345.028 		"/>
	</g>
</g>
<g>
	<g>
		<path d="M467,422h-30c-8.291,0-15-6.709-15-15V121h-91v84.73c0,2.388-0.571,4.731-1.655,6.841l-28.777,56.113l53.752,35.836
			c3.813,2.542,6.68,7.535,6.68,12.48v90c0,5.01-2.505,9.697-6.68,12.48l-90,60c-5.012,3.341-11.563,3.385-16.641,0l-90-60
			c-4.175-2.783-6.68-7.471-6.68-12.48v-90c0-5.245,3.291-10.221,6.68-12.48l53.749-35.832l-28.773-56.116
			c-1.084-2.109-1.655-4.453-1.655-6.841V121H90v286c0,8.291-6.709,15-15,15H45c-24.814,0-45,20.186-45,45c0,24.814,20.186,45,45,45
			h422c24.814,0,45-20.186,45-45C512,442.186,491.814,422,467,422z"/>
	</g>
</g>
<g>
	<g>
		<polygon points="181,345.028 181,398.973 241,438.978 241,385.027 		"/>
	</g>
</g>
<g>
</g>
<g>
</g>
<g>
</g>
<g>
</g>
<g>
</g>
<g>
</g>
<g>
</g>
<g>
</g>
<g>
</g>
<g>
</g>
<g>
</g>
<g>
</g>
<g>
</g>
<g>
</g>
<g>
</g>
</svg>
