<svg height="496pt" viewBox="0 0 496 496" width="496pt" xmlns="http://www.w3.org/2000/svg"><path d="m433.34375 83.3125c4.113281-5.382812 6.65625-12.023438 6.65625-19.3125 0-15.800781-11.511719-28.96875-26.59375-31.542969-6.550781-19.128906-24.742188-32.457031-45.40625-32.457031-13.519531 0-25.910156 5.800781-34.753906 15.113281-27.269532-9.984375-55.902344-15.113281-85.246094-15.113281-136.742188 0-248 111.257812-248 248 0 136.753906 111.257812 248 248 248s248-111.246094 248-248c0-61.089844-22.230469-119.238281-62.65625-164.6875zm-65.34375-67.3125c15.175781 0 28.367188 10.792969 31.359375 25.664062l1.351563 6.710938 6.839843-.296875c.394531-.023437.785157-.0625.449219-.078125 8.824219 0 16 7.175781 16 16s-7.175781 16-16 16h-48v16h48v16h-80v-16h16v-16h-16c-8.824219 0-16-7.175781-16-16s7.175781-16 16-16 16 7.175781 16 16h16c0-13.664062-8.648438-25.265625-20.726562-29.847656 5.238281-10.816406 16.269531-18.152344 28.726562-18.152344zm29.089844 181.535156c19.726562 7.722656 34.972656 22.417969 43.445312 40.640625-1.792968 1.054688-3.445312 2.136719-4.984375 3.160157-5.582031 3.726562-9.992187 6.664062-19.574219 6.664062-9.585937 0-13.992187-2.9375-19.578124-6.65625-6.246094-4.167969-14.023438-9.34375-28.453126-9.34375-14.425781 0-22.191406 5.175781-28.433593 9.34375-5.574219 3.71875-9.984375 6.65625-19.558594 6.65625-9.5625 0-13.960937-2.9375-19.527344-6.65625-1.53125-1.023438-3.179687-2.105469-4.960937-3.152344 8.472656-18.230468 23.71875-32.933594 43.457031-40.65625l5.078125-1.984375v-67.550781h48v67.550781zm50.910156 74.464844c0 44.113281-35.886719 80-80 80s-80-35.886719-80-80c0-6.265625.71875-12.382812 2.089844-18.273438.484375.320313.949218.59375 1.453125.929688 6.242187 4.167969 14 9.34375 28.417969 9.34375 14.421874 0 22.191406-5.175781 28.429687-9.34375 5.578125-3.71875 9.976563-6.65625 19.554687-6.65625 9.582032 0 14 2.9375 19.574219 6.65625 6.257813 4.167969 14.023438 9.34375 28.457031 9.34375 14.429688 0 22.199219-5.175781 28.449219-9.34375.519531-.34375.988281-.625 1.484375-.953125 1.371094 5.90625 2.089844 12.023437 2.089844 18.296875zm-200-256c26.152344 0 51.710938 4.335938 76.121094 12.816406-.535156 1.207032-.976563 2.457032-1.417969 3.71875-15.117187 2.542969-26.703125 15.632813-26.703125 31.464844 0 12.039062 6.761719 22.414062 16.609375 27.878906-.363281 1.320313-.609375 2.6875-.609375 4.121094v16c0 8.824219 7.175781 16 16 16v16h-287.289062c38.199218-75.832031 116.746093-128 207.289062-128zm-214.617188 144h294.617188v24.792969c-34.199219 15.632812-56 49.285156-56 87.207031 0 52.9375 43.0625 96 96 96v16h-307.785156c-27.773438-38.238281-44.214844-85.222656-44.214844-136 0-31.136719 6.207031-60.847656 17.382812-88zm131.511719 240-18.789062 56.367188c-6.699219-3.289063-13.21875-6.886719-19.539063-10.78125l15.203125-45.585938zm16.875 0h20.460938l26.378906 79.128906c-23.800781-1.984375-46.585937-7.554687-67.824219-16.199218zm-108.816406 0h51.941406l-12.109375 36.34375c-14.648437-10.542969-28.007812-22.75-39.832031-36.34375zm172.800781 79.945312-26.648437-79.945312h23.132812l26.347657 79.039062c-6.792969.601563-13.648438.960938-20.585938.960938-.753906 0-1.496094-.046875-2.246094-.054688zm39.03125-2.890624-25.679687-77.054688h124.894531v-33.449219c45.328125-7.648437 80-47.078125 80-94.550781 0-37.921875-21.800781-71.574219-56-87.207031v-56.792969c8.824219 0 16-7.175781 16-16v-15.160156c36.191406 42.070312 56 95.328125 56 151.160156 0 115.398438-84.710938 211.367188-195.214844 229.054688zm0 0"/><path d="m92.496094 335.816406 33.839844-143.816406h121.664062v-16h-134.335938l-30.160156 128.183594-24.191406-24.183594h-27.3125v16h20.6875zm0 0"/><path d="m242.34375 202.34375-50.34375 50.34375-50.34375-50.34375-11.3125 11.3125 50.34375 50.34375-50.34375 50.34375 11.3125 11.3125 50.34375-50.34375 50.34375 50.34375 11.3125-11.3125-50.34375-50.34375 50.34375-50.34375zm0 0"/></svg>