<svg height="511pt" viewBox="0 -35 511.99942 511" width="511pt" xmlns="http://www.w3.org/2000/svg"><path d="m374.167969.5c-57.199219 0-97.789063 24.902344-118.164063 41.132812-20.378906-16.230468-60.96875-41.132812-118.167968-41.132812-168.035157 0-235.523438 301.101562 110.746093 439.191406 4.71875 1.878906 10.027344 1.917969 14.839844 0 346.421875-138.148437 278.632813-439.191406 110.746094-439.191406zm-118.164063 398.972656c-38.394531-15.867187-72.101562-34.21875-100.945312-54.90625 62.820312-33.257812 138.9375-33.328125 201.886718 0-28.84375 20.6875-62.550781 39.039063-100.941406 54.90625zm-58.75-178.664062c0-32.394532 26.355469-58.75 58.75-58.75 32.390625 0 58.746094 26.355468 58.746094 58.75 0 32.394531-26.355469 58.746094-58.746094 58.746094-32.394531 0-58.75-26.351563-58.75-58.746094zm193.117188 96.757812c-19.894532-12.28125-41.195313-21.6875-63.417969-28.070312 60.566406-62.542969 15.78125-167.492188-70.949219-167.492188-54.484375 0-98.808594 44.324219-98.808594 98.804688 0 26.664062 10.625 50.894531 27.855469 68.6875-22.222656 6.382812-43.523437 15.789062-63.417969 28.070312-137.425781-125.511718-80.5625-277.011718 16.203126-277.011718 26.953124 0 52.425781 6.886718 75.710937 20.464843 17.246094 10.058594 26.960937 20.324219 27.582031 20.988281 7.707032 8.722657 21.558594 9.128907 29.78125-.042968.375-.410156 37.894532-41.410156 103.257813-41.410156 97.085937 0 153.355469 151.746093 16.203125 277.011718zm0 0"/></svg>