<svg id="Group_6468" data-name="Group 6468" xmlns="http://www.w3.org/2000/svg" width="97.019" height="97.019" viewBox="0 0 97.019 97.019">
  <g id="github-sign">
    <g id="Group_4" data-name="Group 4">
      <path id="Path_17" data-name="Path 17" d="M161.545,352.673q-8.369,1.559-7.318,7.834t9.4,4.177q8.369-2.086,7.314-7.314Q169.905,351.628,161.545,352.673Z" transform="translate(-125.365 -352.51)" fill="#32597b"/>
      <path id="Path_18" data-name="Path 18" d="M145.689,354.949c-5.574,0-8.359,1.9-8.359,5.744q0,6.791,8.88,5.742,8.361,0,8.362-5.742Q154.573,353.91,145.689,354.949Z" transform="translate(-111.799 -354.808)" fill="#32597b"/>
      <path id="Path_19" data-name="Path 19" d="M119.809,355.933q-2.086,5.75,6.791,7.839,7.836,3.121,9.925-3.136,1.57-5.739-6.791-8.359C124.508,350.888,121.2,352.09,119.809,355.933Z" transform="translate(-97.242 -351.719)" fill="#32597b"/>
      <path id="Path_20" data-name="Path 20" d="M91.682,5.337A17.522,17.522,0,0,0,78.828,0H18.191A17.525,17.525,0,0,0,5.337,5.337,17.524,17.524,0,0,0,0,18.191V78.828A17.521,17.521,0,0,0,5.337,91.681a17.523,17.523,0,0,0,12.854,5.337H32.34a17.081,17.081,0,0,0,2.084-.094,2.445,2.445,0,0,0,1.389-.822,2.942,2.942,0,0,0,.695-2.115q0-.188-.032-4.3t-.032-6.506l-1.453.253a18.591,18.591,0,0,1-3.506.221,26.975,26.975,0,0,1-4.39-.442,9.841,9.841,0,0,1-4.232-1.894,8.017,8.017,0,0,1-2.779-3.885l-.632-1.454a15.779,15.779,0,0,0-1.989-3.22,7.623,7.623,0,0,0-2.748-2.4l-.442-.316a4.645,4.645,0,0,1-.821-.759,3.51,3.51,0,0,1-.568-.884q-.189-.443.316-.728a4.106,4.106,0,0,1,1.832-.283l1.263.189A9.208,9.208,0,0,1,19.422,69.1a10.193,10.193,0,0,1,3.063,3.284,11.131,11.131,0,0,0,3.506,3.947,7.432,7.432,0,0,0,4.137,1.359,17.945,17.945,0,0,0,3.6-.315,12.576,12.576,0,0,0,2.842-.949,10.238,10.238,0,0,1,3.095-6.506,43.255,43.255,0,0,1-6.474-1.137,25.8,25.8,0,0,1-5.937-2.464,17,17,0,0,1-5.085-4.232,20.347,20.347,0,0,1-3.316-6.632,31.545,31.545,0,0,1-1.295-9.475,18.424,18.424,0,0,1,4.99-13.012q-2.338-5.748.442-12.885,1.832-.569,5.432.853A38.093,38.093,0,0,1,33.7,23.367q1.675,1.009,2.685,1.706a45.6,45.6,0,0,1,24.256,0l2.4-1.516a33.979,33.979,0,0,1,5.812-2.779q3.348-1.263,5.116-.695,2.841,7.138.5,12.885A18.425,18.425,0,0,1,79.461,45.98a31.846,31.846,0,0,1-1.295,9.506,19.514,19.514,0,0,1-3.347,6.633,17.663,17.663,0,0,1-5.116,4.2,25.768,25.768,0,0,1-5.938,2.463,43.223,43.223,0,0,1-6.474,1.139q3.282,2.841,3.283,8.968v15.1a4.065,4.065,0,0,0,.315,1.737,1.745,1.745,0,0,0,1.011.916,5.6,5.6,0,0,0,1.232.315,14.18,14.18,0,0,0,1.548.063H78.829a18.223,18.223,0,0,0,18.19-18.192V18.191A17.525,17.525,0,0,0,91.682,5.337Z" fill="#32597b"/>
      <path id="Path_21" data-name="Path 21" d="M87.518,319.766q-3.653,2.6,1.047,8.353,5.232,5.221,8.362,1.565,3.653-2.6-1.052-8.361Q90.654,316.63,87.518,319.766Z" transform="translate(-69.117 -256.271)" fill="#32597b"/>
      <path id="Path_22" data-name="Path 22" d="M77.538,312.8q-1.565,3.664,3.658,6.269c2.783,1.747,5.054,1.4,6.791-1.039q1.565-3.664-3.658-6.282Q79.1,310.179,77.538,312.8Z" transform="translate(8.672 -248.002)" fill="#32597b"/>
      <path id="Path_23" data-name="Path 23" d="M96.713,330.913q-4.707,2.6,0,9.4t8.88,3.656q4.7-3.662,0-9.931C102.81,329.523,99.848,328.465,96.713,330.913Z" transform="translate(-76.098 -267.034)" fill="#32597b"/>
      <path id="Path_24" data-name="Path 24" d="M106.515,344.086c-3.136,2.792-2.445,6.088,2.09,9.932q6.261,6.255,10.445,1.554,4.183-4.169-2.09-9.918Q110.7,339.4,106.515,344.086Z" transform="translate(-84.902 -277.247)" fill="#32597b"/>
    </g>
  </g>
</svg>
