<svg xmlns="http://www.w3.org/2000/svg" width="97.02" height="97.02" viewBox="0 0 97.02 97.02">
  <g id="vimeo" transform="translate(-0.003)">
    <path id="Path_139" data-name="Path 139" d="M91.686,5.337A17.519,17.519,0,0,0,78.833,0H18.194A17.525,17.525,0,0,0,5.34,5.337,17.524,17.524,0,0,0,0,18.191V78.828A17.525,17.525,0,0,0,5.34,91.682,17.523,17.523,0,0,0,18.194,97.02H78.832A18.224,18.224,0,0,0,97.023,78.828V18.191A17.525,17.525,0,0,0,91.686,5.337ZM79.213,32.15Q78.326,36.761,74,46.456A96.323,96.323,0,0,1,63.1,64.932Q55.586,75.037,47.313,79.9a16.873,16.873,0,0,1-4.8,1.989,10.341,10.341,0,0,1-5.369-.1q-3.854-1.642-6.506-7.9a104.9,104.9,0,0,1-3.6-12.444q-2.273-8.906-3.348-11.811-.315-.822-.789-2.558t-.947-3.032a13.594,13.594,0,0,0-1.169-2.432,3.245,3.245,0,0,0-2.621-1.9,10.275,10.275,0,0,0-3.663.663,7.721,7.721,0,0,1-3.442.537Q10.3,40.8,9.7,39.665a3.693,3.693,0,0,0-1.611-1.642v-.442a94.748,94.748,0,0,0,7.737-6.444,59.054,59.054,0,0,1,8.622-6.7q4.422-2.59,8.022-1.579a6.36,6.36,0,0,1,3.189,2.527A15.311,15.311,0,0,1,37.9,29.748q.7,2.21,2.148,10.359.19,1.263.537,4.516t.631,5.306a23.314,23.314,0,0,0,1.2,4.61,11.291,11.291,0,0,0,2.368,4.075q2.717,2.905,5.5.884,1.769-1.326,4.485-6.252,2.968-5.746,3.283-9.032.443-4.8-1.673-6.253t-7.168-1.011a23.374,23.374,0,0,1,2.81-5.779,23,23,0,0,1,3.758-4.421,31,31,0,0,1,4.075-3.064,23.2,23.2,0,0,1,3.633-1.926,13.753,13.753,0,0,1,2.589-.79q8.526-1.263,11.812,2.842Q80.223,26.78,79.213,32.15Z" fill="#27455e"/>
  </g>
</svg>
