<svg id="Group_6472" data-name="Group 6472" xmlns="http://www.w3.org/2000/svg" width="429" height="851" viewBox="0 0 429 851">
  <g id="Hero-image">
    <circle id="Ellipse_1373" data-name="Ellipse 1373" cx="116.5" cy="116.5" r="116.5" transform="translate(196)" fill="#0b2027"/>
    <circle id="Ellipse_1374" data-name="Ellipse 1374" cx="116.5" cy="116.5" r="116.5" transform="translate(196 247)" fill="#0b2027"/>
    <circle id="Ellipse_1377" data-name="Ellipse 1377" cx="116.5" cy="116.5" r="116.5" transform="translate(196 494)" fill="#0b2027"/>
    <path id="Path_130" data-name="Path 130" d="M116.5,0c64.341,0,88.277,45.515,118.827,82.972s9.813,55.773-15.254,85.587S163.083,233,116.5,233a116.5,116.5,0,0,1,0-233Z" transform="translate(0 124)" fill="#f7f7f7"/>
    <path id="Path_136" data-name="Path 136" d="M116.5,0c64.341,0,88.277,45.515,118.827,82.972s9.813,55.773-15.254,85.587S163.083,233,116.5,233a116.5,116.5,0,0,1,0-233Z" transform="translate(0 371)" fill="#f7f7f7"/>
    <path id="Path_137" data-name="Path 137" d="M116.5,0c64.341,0,88.277,45.515,118.827,82.972s9.813,55.773-15.254,85.587S163.083,233,116.5,233a116.5,116.5,0,0,1,0-233Z" transform="translate(0 618)" fill="#f7f7f7"/>
  </g>
</svg>
