<svg xmlns="http://www.w3.org/2000/svg" width="97.02" height="97.02" viewBox="0 0 97.02 97.02">
  <g id="linkedin" transform="translate(0 -0.2)">
    <g id="Group_6471" data-name="Group 6471" transform="translate(0 0.2)">
      <path id="Path_140" data-name="Path 140" d="M72.63.2H24.313A24.374,24.374,0,0,0,0,24.532V72.965A24.358,24.358,0,0,0,24.313,97.22H72.707A24.374,24.374,0,0,0,97.02,72.888V24.532A24.49,24.49,0,0,0,72.63.2ZM32.314,78.74H18.465V38.7H32.314Zm-7-46.2a7.084,7.084,0,1,1,7.078-7.084A7.162,7.162,0,0,1,25.313,32.54Zm53.242,46.2H66.937v-19.4c0-4.7-.616-10.7-7-10.7-6.54,0-7.617,5.082-7.617,10.4V78.74H40.778V38.7H51.549v5.39h.308c1.693-3.08,5.617-5.467,11.772-5.467,12.695,0,14.926,7.315,14.926,18.172V78.74Z" transform="translate(0 -0.2)" fill="#2e506e"/>
    </g>
  </g>
</svg>
