<svg xmlns="http://www.w3.org/2000/svg" width="94.254" height="93.438" viewBox="0 0 94.254 93.438">
  <g id="Group_6574" data-name="Group 6574" transform="translate(-210.85 -156.884)">
    <path id="Path_7831" data-name="Path 7831" d="M21886.123-400.5s-12.01,14.587-5.607,10.847,19.227-13.121,21.521-10.142-28.061,15.765-22.221,15.8,33.332-20.641,31.58-15.8-40.982,22.981-31.58,23.114,37.336-27.826,37.25-23.114-40.82,28.114-37.9,27.77a3.558,3.558,0,0,0,0,.408c2.98-.409,47.449-34.694,45.275-28.178s-48.107,30.7-45.275,33.128c2.748,2.359,53.836-34.366,53.836-33.128,0,0,5.48-.717-8.561,8.8s-45.275,29.278-45.275,29.278" transform="translate(-21667 558)" fill="none" stroke="#901111" stroke-width="1"/>
    <text id="YJ" transform="translate(215.104 229.822)" fill="#182a3a" font-size="76" font-family="Georgia" letter-spacing="0.05em"><tspan x="0" y="0">YJ</tspan></text>
    <path id="Path_7837" data-name="Path 7837" d="M21926.289-361.831s12.01-14.587,5.609-10.847-19.227,13.121-21.521,10.142,28.061-15.765,22.221-15.8-33.332,20.641-31.58,15.8,40.982-22.981,31.58-23.114-37.336,27.826-37.25,23.114,40.82-28.114,37.9-27.77a3.558,3.558,0,0,0,0-.408c-2.982.409-47.451,34.694-45.275,28.178s48.105-30.7,45.275-33.128c-2.75-2.359-53.836,34.366-53.836,33.128,0,0-5.48.717,8.561-8.8s45.275-29.278,45.275-29.278" transform="translate(-21630.438 611.535)" fill="none" stroke="#901111" stroke-width="1"/>
  </g>
</svg>
