<svg xmlns="http://www.w3.org/2000/svg" width="82" height="75.999" viewBox="0 0 82 75.999">
  <path id="Union_7" data-name="Union 7" d="M30.12,74.237a37.615,37.615,0,0,1-11.615-4.462H37.934v-3.6H13.413c-.817-.685-1.612-1.411-2.363-2.156A37.528,37.528,0,0,1,2.966,52.1L2.925,52H16.611V48.4H1.619C1.285,47.3,1,46.181.767,45.058.659,44.531.561,44,.477,43.475H10.632v-3.6H.076C.026,39.066,0,38.269,0,37.5A37.162,37.162,0,0,1,2.966,22.9c.075-.176.148-.347.22-.506h7.776a28.054,28.054,0,0,0,4.162,9.824,52.608,52.608,0,0,0,5.153,6.467c1.251,1.389,2.077,2.307,2.077,2.793a8.966,8.966,0,0,1-.969,2.8c-2.515,5.663-2.515,8.113-2.515,9.735,0,.906.158,3.016,1.612,3.016H26.7l.239,0c.915,0,1.966-.113,1.966-.991a11.616,11.616,0,0,0-.143-1.558l0-.021,0-.023,0-.023a12.168,12.168,0,0,1-.159-1.7,24.738,24.738,0,0,1,2.148-10.291,48.549,48.549,0,0,1,4.724-7.836,48.47,48.47,0,0,0,4.714-7.817,24.584,24.584,0,0,0,2.142-10.248c0-1.944-.347-2.756-2.5-2.756h-3.9c-.06,0-.13,0-.218,0l-.075,0h-.018c-.133-.005-.263-.009-.393-.009-.641,0-1.376.1-1.376.9a7.893,7.893,0,0,0,.1.807l.006.044,0,.027.006.042,0,.009,0,.018,0,.01,0,.019a23.353,23.353,0,0,1,.337,3.288c0,2.66-1.149,6.13-3.153,9.522-1.617,2.737-3.5,4.882-4.283,4.882-.7,0-2.034-1.313-3.254-3.193a21.924,21.924,0,0,1-3.1-7.727H20.9V18.8h-.661c.046-.621.171-1.511.282-2.3l.005-.042,0-.022c.087-.625.16-1.155.16-1.317,0-1.193-1.29-1.354-2.552-1.354H13.566c-2.3,0-3.068,0-3.068,3.952,0,.368.008.73.024,1.076h-5.5c.447-.77.925-1.531,1.421-2.262A37.707,37.707,0,0,1,30.12.763a38.267,38.267,0,0,1,16.367.256,37.76,37.76,0,0,1,8.033,2.9L53.308,6.006h6.673v3.6H51.219l-.661,1.141h13.6a37.949,37.949,0,0,1,4.7,5.576,37.106,37.106,0,0,1,6.409,17.541h4.646v3.6h-4.47v.03a37.443,37.443,0,0,1-.766,7.557c-.23,1.122-.517,2.246-.851,3.341H81V52H72.52l-.021.049-.02.047A37.356,37.356,0,0,1,69,58.467,37.91,37.91,0,0,1,64.4,64.016q-1.1,1.092-2.289,2.1h5.426v3.6H57.04a37.618,37.618,0,0,1-11.716,4.522,38.285,38.285,0,0,1-15.2,0ZM42.08,49.543a15.79,15.79,0,0,0-1.186,4.9c0,1.325,3.6,4.131,7.6,4.131.032,0,.083,0,.158.007.131.007.328.018.571.018a7.5,7.5,0,0,0,5.661-2.547c2.562-2.808,3.862-7.725,3.862-14.614,0-11.1-.26-18.421-.8-22.374-.462-3.414-1.044-3.7-1.553-3.7-.044,0-.087,0-.129,0l-.029,0c-.043,0-.094.006-.145.006H49.411c-.1,0-.209-.005-.3-.01s-.223-.011-.339-.011c-.438,0-.887.081-.887.683a7.521,7.521,0,0,0,.194.919l.013.052a89.616,89.616,0,0,1,2.394,21.571c0,10.649-1.061,11.531-2.243,11.531-.137,0-.278-.014-.415-.027h-.014l-.012,0c-.14-.013-.285-.026-.428-.026-.921,0-1.611-1.248-2.165-2.251-.407-.735-.758-1.37-1.1-1.37C43.711,46.439,42.971,47.255,42.08,49.543Z" transform="translate(0.499 0.499)" fill="#fff" stroke="#0affed" stroke-width="1"/>
</svg>
